<?xml version="1.0" encoding="UTF-8"?>
<svg width="37px" height="26px" viewBox="0 0 37 26" version="1.1" xmlns="http://www.w3.org/2000/svg" xmlns:xlink="http://www.w3.org/1999/xlink">
    <!-- Generator: Sketch 52.5 (67469) - http://www.bohemiancoding.com/sketch -->
    <title>Shape</title>
    <desc>Created with Sketch.</desc>
    <g id="Product" stroke="none" stroke-width="1" fill="none" fill-rule="evenodd">
        <g id="Product_c" transform="translate(-428.000000, -1429.000000)" fill="#525252" fill-rule="nonzero">
            <g id="Group-3" transform="translate(238.000000, 1049.000000)">
                <g id="Group-2">
                    <g id="Group-16" transform="translate(0.000000, 330.000000)">
                        <g id="Group-14" transform="translate(190.000000, 50.000000)">
                            <path d="M13.5,13 C17.0842857,13 20,10.0842857 20,6.5 C20,2.91571429 17.0842857,0 13.5,0 C9.91571429,0 7,2.91571429 7,6.5 C7,10.0842857 9.91571429,13 13.5,13 Z M13.5,4 C14.8833333,4 16,5.11666667 16,6.5 C16,7.88333333 14.8833333,9 13.5,9 C12.1166667,9 11,7.88333333 11,6.5 C11,5.11666667 12.1166667,4 13.5,4 Z M12.5612472,22.4 L4.93541203,22.4 C6.69933185,21.5 9.74610245,20.6 12.4721604,20.6 C12.6681514,20.6 12.8819599,20.618 13.077951,20.618 C13.6837416,19.304 14.7349666,18.224 16,17.36 C14.6993318,17.126 13.4699332,17 12.4721604,17 C8.30289532,17 0,19.106 0,23.3 L0,26 L12.4721604,26 L12.4721604,23.3 C12.4721604,22.994 12.5077951,22.688 12.5612472,22.4 Z M26.5,17 C22.9872727,17 16,19.02 16,23 L16,26 L37,26 L37,23 C37,19.02 30.0127273,17 26.5,17 Z M29.678,13.424 C31.046,12.65 32,11.192 32,9.5 C32,7.016 29.984,5 27.5,5 C25.016,5 23,7.016 23,9.5 C23,11.192 23.954,12.65 25.322,13.424 C25.97,13.784 26.708,14 27.5,14 C28.292,14 29.03,13.784 29.678,13.424 Z" id="Shape"></path>
                        </g>
                    </g>
                </g>
            </g>
        </g>
    </g>
</svg>