<?xml version="1.0" encoding="UTF-8"?>
<svg width="31px" height="31px" viewBox="0 0 31 31" version="1.1" xmlns="http://www.w3.org/2000/svg" xmlns:xlink="http://www.w3.org/1999/xlink">
    <!-- Generator: Sketch 52.5 (67469) - http://www.bohemiancoding.com/sketch -->
    <title>Shape</title>
    <desc>Created with Sketch.</desc>
    <g id="Product" stroke="none" stroke-width="1" fill="none" fill-rule="evenodd">
        <g id="Product_c" transform="translate(-238.000000, -1429.000000)" fill="#525252" fill-rule="nonzero">
            <g id="Group-3" transform="translate(238.000000, 1049.000000)">
                <g id="Group-2">
                    <g id="Group-16" transform="translate(0.000000, 330.000000)">
                        <g id="Group-11" transform="translate(0.000000, 50.000000)">
                            <path d="M15.9086555,9.50421 L13.6235858,9.50421 L13.6235858,18.7166914 L20.8596399,23.0926201 L22.0021748,21.2040614 L15.9086555,17.5651313 L15.9086555,9.50421 Z M23.2772437,0 L30.2954545,5.90366518 L28.3455284,8.26052501 L21.3227474,2.35993066 L23.2772437,0 Z M7.01668747,0 L8.9696604,2.35839525 L1.94992617,8.26052501 L2.06057393e-13,5.90212977 L7.01668747,0 Z M15.1469656,3.36255572 C7.57576786,3.36255572 1.43654717,9.55027241 1.43654717,17.1812779 C1.43654717,24.8122833 7.57576786,31 15.1469656,31 C22.7181633,31 28.857384,24.8122833 28.857384,17.1812779 C28.857384,9.55027241 22.7181633,3.36255572 15.1469656,3.36255572 Z M15.1469656,27.9291729 C9.26671946,27.9291729 4.48330682,23.1079742 4.48330682,17.1812779 C4.48330682,11.2545815 9.26671946,6.43338286 15.1469656,6.43338286 C21.0272117,6.43338286 25.8106243,11.2545815 25.8106243,17.1812779 C25.8106243,23.1079742 21.0272117,27.9291729 15.1469656,27.9291729 Z" id="Shape"></path>
                        </g>
                    </g>
                </g>
            </g>
        </g>
    </g>
</svg>