<?xml version="1.0" encoding="UTF-8"?>
<svg width="24px" height="31px" viewBox="0 0 24 31" version="1.1" xmlns="http://www.w3.org/2000/svg" xmlns:xlink="http://www.w3.org/1999/xlink">
    <!-- Generator: Sketch 52.5 (67469) - http://www.bohemiancoding.com/sketch -->
    <title>Shape</title>
    <desc>Created with Sketch.</desc>
    <g id="Product" stroke="none" stroke-width="1" fill="none" fill-rule="evenodd">
        <g id="Product_c" transform="translate(-435.000000, -1379.000000)" fill="#525252" fill-rule="nonzero">
            <g id="Group-3" transform="translate(238.000000, 1049.000000)">
                <g id="Group-2">
                    <g id="Group-16" transform="translate(0.000000, 330.000000)">
                        <g id="Group-13" transform="translate(197.000000, 0.000000)">
                            <path d="M20.965973,16.887619 L16.1788164,14.4961905 C18.0848139,13.02 19.3111534,10.7171429 19.3111534,8.11904762 C19.3111534,3.64619048 15.6616853,0 11.1848073,0 C6.70792934,0 3.05846118,3.64619048 3.05846118,8.11904762 C3.05846118,11.2633333 4.8610325,13.9942857 7.49101361,15.337619 L7.49101361,20.15 L4.77238145,19.5742857 L4.6246297,19.5447619 C4.47687795,19.5152381 4.32912621,19.5004762 4.15182411,19.5004762 C3.36873985,19.5004762 2.62998111,19.8104762 2.06852447,20.3714286 L-3.41060513e-13,22.467619 L7.52056396,29.9814286 C8.15589647,30.6309524 9.04240696,31 9.95846779,31 L19.2668279,31 C20.714795,31 21.9411345,29.9666667 22.1775373,28.5347619 L23.3595513,21.5819048 C23.6846052,19.6628571 22.7242188,17.7733333 20.965973,16.887619 Z M20.4488419,21.0947619 L19.2668279,28.047619 L9.95846779,28.047619 C9.82549122,28.047619 9.70728982,27.9885714 9.6038636,27.9 L4.16659928,22.467619 L10.4460486,23.7814286 L10.4460486,8.11904762 C10.4460486,7.70571429 10.7711024,7.38095238 11.1848073,7.38095238 C11.5985122,7.38095238 11.923566,7.70571429 11.923566,8.11904762 L11.923566,16.9761905 L14.5239968,16.9761905 L19.6362073,19.53 C20.2272143,19.8252381 20.5522681,20.46 20.4488419,21.0947619 Z M6.01349613,8.11904762 C6.01349613,5.27 8.33319857,2.95238095 11.1848073,2.95238095 C14.036416,2.95238095 16.3561185,5.27 16.3561185,8.11904762 C16.3561185,9.52142857 15.7946618,10.7909524 14.878601,11.7209524 L14.878601,8.11904762 C14.878601,6.08190476 13.2237814,4.42857143 11.1848073,4.42857143 C9.14583318,4.42857143 7.49101361,6.08190476 7.49101361,8.11904762 L7.49101361,11.7209524 C6.57495277,10.7909524 6.01349613,9.52142857 6.01349613,8.11904762 Z" id="Shape"></path>
                        </g>
                    </g>
                </g>
            </g>
        </g>
    </g>
</svg>