<?xml version="1.0" encoding="UTF-8"?>
<svg width="120px" height="43px" viewBox="0 0 120 43" version="1.1" xmlns="http://www.w3.org/2000/svg" xmlns:xlink="http://www.w3.org/1999/xlink">
    <!-- Generator: Sketch 52.5 (67469) - http://www.bohemiancoding.com/sketch -->
    <title>emCall</title>
    <desc>Created with Sketch.</desc>
    <g id="Symbols" stroke="none" stroke-width="1" fill="none" fill-rule="evenodd">
        <g id="Get-app" transform="translate(-660.000000, -66.000000)">
            <g id="emCall" transform="translate(660.000000, 66.000000)">
                <path d="M18.8956044,33.7429907 C18.8956044,34.8535826 18.6868132,35.9641745 18.217033,36.9299065 C17.7472527,37.9439252 17.1208791,38.8130841 16.3379121,39.5856698 C15.5549451,40.3582555 14.5631868,40.9376947 13.467033,41.3722741 C12.3186813,41.8068536 11.0659341,42 9.70879121,42 C8.40384615,42 7.1510989,41.8068536 5.95054945,41.3722741 C4.75,40.9376947 3.75824176,40.3582555 2.87087912,39.5856698 C1.98351648,38.8130841 1.30494505,37.9439252 0.782967033,36.9299065 C0.260989011,35.9158879 0,34.8535826 0,33.7429907 L0,19.2570093 C0,18.0981308 0.260989011,17.0358255 0.782967033,16.0218069 C1.30494505,15.0077882 1.98351648,14.1386293 2.87087912,13.4143302 C3.75824176,12.6417445 4.75,12.0623053 5.95054945,11.6277259 C7.1510989,11.1931464 8.40384615,11 9.70879121,11 C11.0659341,11 12.3186813,11.1931464 13.467033,11.6277259 C14.6153846,12.0623053 15.5549451,12.6417445 16.3901099,13.4143302 C17.2252747,14.1869159 17.8516484,15.0560748 18.3214286,16.0218069 C18.7912088,17.0358255 19,18.0981308 19,19.2570093 L19,26.6448598 C19,26.9345794 18.8956044,27.1277259 18.739011,27.3208723 C18.5824176,27.4657321 18.3214286,27.5623053 18.0082418,27.5623053 L5.74175824,27.5623053 L5.74175824,33.7912773 C5.74175824,34.2741433 5.84615385,34.7570093 6.05494505,35.1915888 C6.26373626,35.6261682 6.57692308,36.0124611 6.94230769,36.3504673 C7.30769231,36.6884735 7.72527473,36.9299065 8.24725275,37.1713396 C8.71703297,37.364486 9.29120879,37.4610592 9.86538462,37.4610592 C10.4395604,37.4610592 11.0137363,37.364486 11.4835165,37.1713396 C11.9532967,36.9781931 12.3708791,36.6884735 12.7362637,36.3504673 C13.0494505,36.0124611 13.3626374,35.5778816 13.5192308,35.1433022 C13.728022,34.7087227 13.7802198,34.2258567 13.7802198,33.7429907 L13.7802198,32.6806854 C13.7802198,32.4392523 13.8846154,32.2943925 14.0412088,32.1495327 C14.1978022,32.0046729 14.4065934,31.9563863 14.6153846,31.9563863 L18.217033,31.9563863 C18.4258242,31.9563863 18.5824176,32.0046729 18.739011,32.1012461 C18.8956044,32.1978193 18.9478022,32.3909657 18.9478022,32.728972 L18.9478022,33.7429907 L18.8956044,33.7429907 Z M8.19505495,15.8286604 C7.72527473,16.0218069 7.25549451,16.3115265 6.89010989,16.6495327 C6.52472527,16.9875389 6.21153846,17.3738318 6.00274725,17.8084112 C5.79395604,18.2429907 5.68956044,18.7258567 5.68956044,19.2570093 L5.68956044,23.7959502 L13.728022,23.7959502 L13.728022,19.2570093 C13.728022,18.7741433 13.6236264,18.2912773 13.467033,17.8084112 C13.2582418,17.3738318 12.9972527,16.9875389 12.6840659,16.6495327 C12.3186813,16.3115265 11.9010989,16.0700935 11.4313187,15.8286604 C10.9615385,15.635514 10.4395604,15.5389408 9.86538462,15.5389408 C9.23901099,15.5389408 8.71703297,15.635514 8.19505495,15.8286604 Z" id="Shape" fill="#2D2D2D" fill-rule="nonzero"></path>
                <path d="M39.4012638,41.6561014 C39.2496051,41.8526149 39.0473934,41.9508716 38.7440758,41.9508716 L34.9020537,41.9508716 C34.3459716,41.9508716 34.093207,41.6069731 34.093207,40.9683043 L34.093207,20.1870048 C34.093207,19.2535658 33.9415482,18.5166403 33.6382306,17.9762282 C33.3349131,17.3866878 33.0315956,16.9445325 32.6271722,16.6006339 C32.2227488,16.2567353 31.8183254,16.0602219 31.3633491,15.9128368 C30.9083728,15.81458 30.5039494,15.7163233 30.150079,15.7163233 L29.8973144,15.7163233 C29.492891,15.7163233 29.1390205,15.81458 28.7345972,15.9619651 C28.3301738,16.1093502 27.9763033,16.3058637 27.6224329,16.6497623 C27.2685624,16.9936609 27.0157978,17.4358162 26.7630332,18.0253566 C26.5608215,18.614897 26.4091627,19.3518225 26.4091627,20.2361331 L26.4091627,41.0174326 C26.4091627,41.2139461 26.3586098,41.459588 26.2575039,41.6561014 C26.1563981,41.8526149 25.9541864,42 25.6508689,42 L21.8088468,42 C21.5055292,42 21.3033175,41.9017433 21.2022117,41.7543582 C21.0505529,41.5578447 21,41.3613312 21,41.0174326 L21,20.1378764 C21.0505529,18.3201268 21.3538705,16.7971474 21.9605055,15.6180666 C22.5165877,14.4389857 23.2748815,13.5055468 24.1342812,12.8177496 C24.9936809,12.1299525 26.0047393,11.6386688 27.0663507,11.3930269 C28.1279621,11.1473851 29.1390205,11 30.150079,11 L30.3522907,11 C31.6666667,11 32.8799368,11.2947702 34.093207,11.8351823 C35.2559242,12.3755943 36.2669826,13.3090333 37.0252765,14.5372425 C37.7330174,13.3090333 38.64297,12.3755943 39.8056872,11.8351823 C40.9684044,11.2947702 42.1816746,11 43.4454976,11 L43.6477093,11 C44.6587678,11 45.7203791,11.1473851 46.7819905,11.3930269 C47.8436019,11.6386688 48.8546603,12.1299525 49.71406,12.8177496 C50.6240126,13.5055468 51.3823065,14.4389857 51.9889415,15.6180666 C52.5955766,16.7971474 52.8988942,18.3201268 52.9494471,20.1378764 C52.9494471,20.1870048 53,20.2361331 53,20.3343899 L53,40.9683043 C53,41.2139461 52.9494471,41.4104596 52.7977883,41.6561014 C52.6461295,41.8526149 52.4439179,41.9508716 52.1406003,41.9508716 L48.2985782,41.9508716 C47.7424961,41.9508716 47.4897314,41.6069731 47.4897314,40.9683043 L47.4897314,20.088748 C47.4897314,19.2044374 47.3380727,18.5166403 47.0853081,17.9762282 C46.8325434,17.4358162 46.5292259,16.9936609 46.1753555,16.6497623 C45.821485,16.3058637 45.4170616,16.1093502 44.9620853,15.9619651 C44.5576619,15.81458 44.1026856,15.7654517 43.7488152,15.7163233 L43.0916272,15.7163233 C42.6872038,15.7163233 42.2827804,15.81458 41.878357,15.9619651 C41.4739336,16.1093502 41.0695103,16.3058637 40.7661927,16.6497623 C40.4123223,16.9936609 40.1595577,17.4358162 39.957346,18.0253566 C39.7551343,18.614897 39.6540284,19.3518225 39.6540284,20.2361331 L39.6540284,40.9683043 C39.6034755,41.2630745 39.5023697,41.459588 39.4012638,41.6561014 Z" id="Path" fill="#2D2D2D"></path>
                <path d="M76.7956204,12.5208817 C76.7956204,12.9698376 76.7445255,13.3190255 76.5912409,13.4686775 C76.4379562,13.6183295 76.2335766,13.7180974 75.8759124,13.7180974 L72.1459854,13.7180974 C71.7883212,13.7180974 71.5839416,13.6183295 71.4306569,13.4686775 C71.3284672,13.2691415 71.2773723,13.0197216 71.2773723,12.5707657 L71.2773723,10.1264501 C71.2773723,9.47795824 71.1751825,8.82946636 70.9708029,8.23085847 C70.7664234,7.63225058 70.459854,7.08352668 70.0510949,6.63457077 C69.6423358,6.18561485 69.1824818,5.78654292 68.620438,5.53712297 C68.0583942,5.28770302 67.3941606,5.13805104 66.729927,5.13805104 C66.0145985,5.13805104 65.4014599,5.28770302 64.7883212,5.53712297 C64.1751825,5.78654292 63.6642336,6.13573086 63.2554745,6.63457077 C62.8467153,7.08352668 62.4890511,7.63225058 62.2335766,8.23085847 C61.9781022,8.82946636 61.8759124,9.47795824 61.8759124,10.1264501 L61.8759124,32.8735499 C61.8759124,33.5220418 61.9781022,34.1705336 62.2335766,34.7691415 C62.4890511,35.3677494 62.7956204,35.9164733 63.2043796,36.3654292 C63.6131387,36.8143852 64.1240876,37.1635731 64.7372263,37.462877 C65.350365,37.712297 66.0145985,37.861949 66.729927,37.861949 C67.4452555,37.861949 68.1094891,37.712297 68.6715328,37.462877 C69.2335766,37.2134571 69.7445255,36.8143852 70.1532847,36.3654292 C70.5620438,35.9164733 70.8686131,35.3677494 71.1240876,34.7691415 C71.3284672,34.1705336 71.4817518,33.5220418 71.4817518,32.8735499 L71.4817518,29.8306265 C71.4817518,29.3816705 71.5328467,29.0823666 71.6861314,28.9327146 C71.8394161,28.7830626 72.0437956,28.6832947 72.2992701,28.6832947 L76.0291971,28.6832947 C76.3357664,28.6832947 76.5912409,28.7331787 76.7445255,28.8828306 C76.8978102,29.0324826 77,29.3317865 77,29.7807425 L77,33.1229698 C77,34.6194896 76.7445255,35.9663573 76.1824818,37.1635731 C75.620438,38.3607889 74.9051095,39.4083527 73.9854015,40.3062645 C73.0656934,41.1542923 71.9416058,41.8526682 70.6642336,42.3016241 C69.3868613,42.75058 68.0583942,43 66.6277372,43 C65.1970803,43 63.8175182,42.75058 62.540146,42.3016241 C61.2627737,41.8526682 60.1386861,41.1542923 59.1678832,40.3062645 C58.1970803,39.4582367 57.4306569,38.4106729 56.8686131,37.1635731 C56.3065693,35.9663573 56,34.5696056 56,33.1229698 L56,9.87703016 C56,8.48027842 56.2554745,7.18329466 56.8175182,5.98607889 C57.3284672,4.78886311 58.0948905,3.7412993 59.0656934,2.84338747 C60.0364964,1.94547564 61.1605839,1.24709977 62.4379562,0.748259861 C63.7153285,0.249419954 65.1459854,0 66.6788321,0 C68.3138686,0 69.7956204,0.299303944 71.0218978,0.848027842 C72.2992701,1.39675174 73.3211679,2.1450116 74.189781,3.09280742 C75.0583942,4.04060325 75.6715328,5.08816705 76.1313869,6.28538283 C76.5912409,7.48259861 76.7956204,8.72969838 76.7956204,10.0266821 L76.7956204,12.5208817 Z" id="Path" fill="#27AAE1"></path>
                <path d="M91.1578947,23.2647975 L91.1578947,19.9813084 C91.1578947,19.4984424 91.0526316,19.0155763 90.8947368,18.4844237 C90.7368421,17.953271 90.4210526,17.4221184 90.0526316,16.9875389 C89.6842105,16.5046729 89.1578947,16.1183801 88.5789474,15.8286604 C87.9473684,15.5389408 87.2105263,15.3457944 86.3684211,15.3457944 C85,15.3457944 83.8947368,15.5389408 83.0526316,15.9252336 C82.2105263,16.3115265 81.4736842,16.7461059 80.8947368,17.2772586 C80.6315789,17.470405 80.3684211,17.5186916 80.1052632,17.5186916 C79.8421053,17.5186916 79.6315789,17.4221184 79.4736842,17.1806854 L78.4210526,15.0560748 C78.3157895,14.8146417 78.2631579,14.5732087 78.2631579,14.3317757 C78.3157895,14.0903427 78.5263158,13.8489097 78.9473684,13.55919 C79.4210526,13.2694704 79.9473684,12.9314642 80.4736842,12.6417445 C81,12.3520249 81.5789474,12.0623053 82.2631579,11.8208723 C82.8947368,11.5794393 83.6315789,11.3862928 84.4210526,11.241433 C85.2105263,11.0965732 86.1578947,11 87.2105263,11 C88.5263158,11 89.7894737,11.1931464 91,11.6277259 C92.1578947,12.0623053 93.2105263,12.6417445 94.1052632,13.4143302 C95,14.1869159 95.6842105,15.1043614 96.2105263,16.1666667 C96.7368421,17.228972 97,18.3878505 97,19.6433022 L97,33.694704 C97,34.805296 96.8421053,35.771028 96.5263158,36.5919003 C96.2105263,37.4127726 95.7368421,38.1370717 95.2105263,38.7647975 C94.6315789,39.3925234 94.0526316,39.923676 93.3684211,40.3099688 C92.6842105,40.7445483 91.9473684,41.0825545 91.2105263,41.3239875 C90.4736842,41.5654206 89.7894737,41.758567 89.0526316,41.8551402 C88.3684211,41.9517134 87.7368421,42 87.2105263,42 C86.1052632,42 84.8947368,41.8068536 83.6842105,41.4688474 C82.4736842,41.1308411 81.3684211,40.5996885 80.3684211,39.8753894 C79.3684211,39.1510903 78.5789474,38.1853583 77.9473684,37.0747664 C77.3157895,35.9158879 77,34.5638629 77,32.9221184 L77,32.1978193 C77,30.7492212 77.2631579,29.4454829 77.7894737,28.334891 C78.3157895,27.2242991 79,26.258567 79.8947368,25.5342679 C80.7894737,24.7616822 81.8421053,24.2305296 83.0526316,23.8442368 C84.2631579,23.4579439 85.5789474,23.2647975 87,23.3130841 L91.1578947,23.3130841 L91.1578947,23.2647975 Z M91.1578947,27.1277259 L88.6315789,27.1277259 C87.4736842,27.1277259 86.5263158,27.2725857 85.7368421,27.5140187 C84.9473684,27.8037383 84.3684211,28.1417445 83.8947368,28.6246106 C83.4210526,29.1074766 83.1052632,29.6386293 82.9473684,30.2663551 C82.7368421,30.894081 82.6842105,31.5218069 82.6842105,32.1978193 L82.6842105,32.7772586 C82.6842105,33.5981308 82.8421053,34.2741433 83.1052632,34.8535826 C83.3684211,35.4330218 83.7368421,35.9158879 84.2105263,36.2538941 C84.6315789,36.5919003 85.1578947,36.8816199 85.6842105,37.0264798 C86.2105263,37.1713396 86.6842105,37.2679128 87.1578947,37.2679128 C87.5789474,37.2679128 88.0526316,37.2196262 88.5263158,37.0747664 C89,36.9299065 89.4210526,36.7367601 89.8421053,36.3987539 C90.2105263,36.1090343 90.5789474,35.6744548 90.7894737,35.1915888 C91.0526316,34.7087227 91.1578947,34.0809969 91.1578947,33.3566978 L91.1578947,27.1277259 Z" id="Shape" fill="#27AAE1" fill-rule="nonzero"></path>
                <path d="M106.955,41.1182796 C106.955,41.2162485 106.955,41.3142174 106.91,41.4121864 C106.865,41.5101553 106.82,41.6081243 106.775,41.7060932 C106.73,41.8040621 106.55,41.8530466 106.415,41.9020311 C106.28,41.9510155 106.055,42 105.74,42 L104.21,42 C103.31,42 102.455,41.8530466 101.69,41.6081243 C100.925,41.3632019 100.295,40.9223417 99.71,40.3835125 C99.17,39.7956989 98.72,39.0609319 98.45,38.130227 C98.135,37.1995221 98,36.0728793 98,34.7013142 L98,1.9307049 C98,1.63679809 98.09,1.44086022 98.225,1.24492234 C98.36,1.04898447 98.54,1 98.81,1 L102.14,1 C102.41,1 102.59,1.09796894 102.725,1.24492234 C102.86,1.39187575 102.95,1.63679809 102.95,1.9307049 L102.95,34.4074074 C102.95,35.2401434 103.13,35.9259259 103.535,36.4157706 C103.895,36.9056153 104.57,37.1505376 105.515,37.1505376 L106.28,37.1505376 C106.64,37.1505376 106.82,37.2485066 106.91,37.4934289 C107,37.7383513 107,37.9342891 107,38.0812425 L107,41.1182796 L106.955,41.1182796 Z" id="Path" fill="#27AAE1"></path>
                <path d="M119.955,41.1182796 C119.955,41.2162485 119.955,41.3142174 119.91,41.4121864 C119.865,41.5101553 119.82,41.6081243 119.775,41.7060932 C119.73,41.8040621 119.55,41.8530466 119.415,41.9020311 C119.28,41.9510155 119.055,42 118.74,42 L117.21,42 C116.31,42 115.455,41.8530466 114.69,41.6081243 C113.925,41.3632019 113.295,40.9223417 112.71,40.3835125 C112.17,39.7956989 111.72,39.0609319 111.45,38.130227 C111.135,37.1995221 111,36.0728793 111,34.7013142 L111,1.9307049 C111,1.63679809 111.09,1.44086022 111.225,1.24492234 C111.36,1.04898447 111.54,1 111.81,1 L115.14,1 C115.41,1 115.59,1.09796894 115.725,1.24492234 C115.86,1.39187575 115.95,1.63679809 115.95,1.9307049 L115.95,34.4074074 C115.95,35.2401434 116.13,35.9259259 116.535,36.4157706 C116.895,36.9056153 117.57,37.1505376 118.515,37.1505376 L119.28,37.1505376 C119.64,37.1505376 119.82,37.2485066 119.91,37.4934289 C120,37.7383513 120,37.9342891 120,38.0812425 L120,41.1182796 L119.955,41.1182796 Z" id="Path" fill="#27AAE1"></path>
            </g>
        </g>
    </g>
</svg>