<?xml version="1.0" encoding="UTF-8"?>
<svg width="100px" height="35px" viewBox="0 0 100 35" version="1.1" xmlns="http://www.w3.org/2000/svg" xmlns:xlink="http://www.w3.org/1999/xlink">
    <!-- Generator: Sketch 52.5 (67469) - http://www.bohemiancoding.com/sketch -->
    <title>final-01</title>
    <desc>Created with Sketch.</desc>
    <g id="Symbols" stroke="none" stroke-width="1" fill="none" fill-rule="evenodd">
        <g id="Header" transform="translate(-243.000000, -28.000000)">
            <g id="final-01" transform="translate(243.000000, 28.000000)">
                <path d="M78.0198675,0 C79.2913907,0 80.205298,0.715231788 80.8410596,2.18543046 L81,2.94039735 C81,4.13245033 80.3245033,5.08609272 78.9735099,5.8410596 L77.9801325,6 C76.7880795,6 75.8741722,5.32450331 75.2384106,4.01324503 C75.0794702,3.65562914 75,3.25827815 75,2.90066225 C75,1.66887417 75.7152318,0.754966887 77.1456954,0.119205298 C77.5827815,0.0397350993 77.9006623,0 78.0198675,0 Z" id="Path" fill="#EF4136"></path>
                <path d="M31.0394737,29 C32.2631579,29 33.1710526,29.6754967 33.7631579,31.0264901 C33.8815789,31.384106 33.9605263,31.7019868 34,31.9801325 C34,33.0927152 33.4078947,34.0066225 32.2631579,34.6821192 C32.0657895,34.8013245 31.6710526,34.9205298 31.0394737,35 C29.6578947,35 28.6710526,34.205298 28.0789474,32.5761589 C28.0394737,32.1788079 28,31.9403974 28,31.9006623 C28,30.589404 28.75,29.6754967 30.2894737,29.0794702 C30.6447368,29.0397351 30.8815789,29 31.0394737,29 Z" id="Path" fill="#EF4136"></path>
                <g id="Group" fill="#30263A">
                    <path d="M17.3333333,0.325581395 C18.9583333,0.325581395 20.2083333,1.5872093 21.0416667,4.06976744 C25.625,13.4709302 27.9583333,18.3139535 28,18.5988372 C28.0833333,18.7616279 28.0833333,18.9651163 28.0833333,19.2093023 L28.0833333,19.4534884 C28.0833333,20.7965116 27.25,21.7732558 25.5416667,22.3430233 C25.2916667,22.3837209 25.0833333,22.3837209 24.9166667,22.3837209 C23.4166667,22.3837209 22.2916667,21.3255814 21.5,19.1686047 C18.9166667,13.7151163 17.5,10.8255814 17.3333333,10.5406977 L17.2083333,10.5406977 C10.125,25.1104651 6.29166667,32.8023256 5.79166667,33.5755814 C5.04166667,34.3081395 4.25,34.6744186 3.375,34.6744186 C2.04166667,34.6744186 1.08333333,33.9418605 0.416666667,32.4360465 L0.25,31.622093 C0.25,31.0523256 0.958333333,29.4651163 2.33333333,26.8197674 C10.25,10.744186 14.4166667,2.31976744 14.7916667,1.5872093 C15.625,0.773255814 16.4583333,0.325581395 17.3333333,0.325581395 Z" id="Path"></path>
                    <path d="M40.3333333,0.36627907 C41.7083333,0.36627907 42.9583333,1.30232558 44.0833333,3.21511628 L53.5833333,15.505814 C60.7916667,6.14534884 64.5416667,1.30232558 64.7916667,1.05813953 C65.5,0.610465116 66.1666667,0.36627907 66.7916667,0.36627907 C68.3333333,0.36627907 69.375,1.22093023 69.9583333,2.88953488 C70,3.1744186 70.0416667,3.37790698 70.0416667,3.54069767 C70.0416667,4.51744186 68.9166667,6.30813953 66.6666667,8.95348837 C60.875,16.6453488 57.2083333,21.4069767 55.7083333,23.2383721 C55.3333333,23.6453488 54.5833333,23.9302326 53.5416667,24.0930233 C52.25,24.0930233 51,23.1569767 49.7916667,21.244186 L43.625,13.2674419 L43.5416667,13.2674419 L43.5416667,31.622093 C43.5416667,32.9651163 42.7916667,33.9825581 41.2916667,34.5523256 C40.9583333,34.6744186 40.6666667,34.7151163 40.375,34.7151163 L40.25,34.7151163 C38.75,34.7151163 37.7083333,33.8604651 37.125,32.1918605 C37.0833333,31.9069767 37.0833333,31.7034884 37.0833333,31.5406977 L37.0833333,3.54069767 C37.0833333,2.03488372 37.9583333,1.01744186 39.6666667,0.447674419 C39.9583333,0.406976744 40.1666667,0.36627907 40.3333333,0.36627907 Z" id="Path"></path>
                    <path d="M67.4583333,0.447674419 C69.1666667,1.01744186 70.0416667,2.03488372 70.0416667,3.54069767 L70.0416667,31.5406977 C70.0416667,31.7034884 70.0416667,31.9069767 70,32.1918605 C69.375,33.8604651 68.3333333,34.7151163 66.875,34.7151163 L66.75,34.7151163 C66.4583333,34.7151163 66.1666667,34.6744186 65.8333333,34.5523256 C64.3333333,33.9418605 63.5833333,32.9651163 63.5833333,31.622093 L63.5833333,13.2674419 L63.5,13.2674419 L57.3333333,21.244186 C56.1666667,23.1569767 54.9166667,24.0930233 53.5833333,24.0930233 C52.5416667,23.9302326 51.8333333,23.6860465 51.4166667,23.2383721 C49.9166667,21.4476744 46.2916667,16.6860465 40.4583333,8.95348837 C38.2083333,6.30813953 37.0833333,4.51744186 37.0833333,3.54069767 C37.0833333,3.37790698 37.125,3.1744186 37.1666667,2.88953488 C37.75,1.22093023 38.7916667,0.36627907 40.3333333,0.36627907 C41,0.36627907 41.6666667,0.610465116 42.3333333,1.05813953 C42.625,1.34302326 46.3333333,6.14534884 53.5416667,15.505814 L63.0416667,3.21511628 C64.1666667,1.34302326 65.4166667,0.36627907 66.7916667,0.36627907 C66.9583333,0.36627907 67.1666667,0.406976744 67.4583333,0.447674419 Z" id="Path"></path>
                    <path d="M86.75,0.284883721 L89.0416667,0.284883721 C94.1666667,0.284883721 97.625,2.80813953 99.2916667,7.81395349 C99.5,8.66860465 99.625,9.60465116 99.7083333,10.7034884 C99.7083333,14.0813953 98.25,16.8488372 95.2916667,19.005814 C93.4583333,20.0639535 91.5833333,20.5523256 89.625,20.5523256 L81.3333333,20.5523256 L81.3333333,31.2151163 C81.3333333,32.8430233 80.625,33.9418605 79.2083333,34.5523256 C78.5833333,34.6744186 78.2083333,34.7151163 78.125,34.7151163 C76.7916667,34.7151163 75.7916667,33.9825581 75.125,32.4767442 C75.0416667,32.0290698 75,31.6627907 75,31.377907 L75,17.622093 C75,16.2383721 75.7083333,15.2209302 77.1666667,14.6511628 C77.4583333,14.5290698 77.7916667,14.4476744 78.0416667,14.4476744 L89,14.4476744 C91.9166667,14.4476744 93.375,13.2674419 93.375,10.9069767 L93.375,10.6627907 C93.375,8.70930233 92.5,7.36627907 90.7916667,6.63372093 C90.4583333,6.51162791 90.0416667,6.47093023 89.625,6.47093023 L86.75,6.47093023 C85,6.47093023 83.875,5.69767442 83.375,4.11046512 C83.2916667,3.8255814 83.25,3.54069767 83.25,3.3372093 C83.25,1.99418605 84.0416667,1.05813953 85.6666667,0.447674419 C86.0833333,0.325581395 86.4583333,0.284883721 86.75,0.284883721 Z" id="Path"></path>
                </g>
            </g>
        </g>
    </g>
</svg>